<?xml version="1.0" encoding="utf-8"?>
<!-- Generator: Adobe Illustrator 19.0.0, SVG Export Plug-In . SVG Version: 6.00 Build 0)  -->
<svg version="1.1" id="Layer_1" xmlns="http://www.w3.org/2000/svg" xmlns:xlink="http://www.w3.org/1999/xlink" x="0px" y="0px"
	 viewBox="0 0 325.4 190.5" style="enable-background:new 0 0 325.4 190.5;" xml:space="preserve">
<style type="text/css">
	.st0{fill:#FFFFFF;stroke:#000000;stroke-miterlimit:10;}
</style>
<path id="XMLID_18_" class="st0" d="M311.1,45H14.2C6.6,45,0.5,52.1,0.5,61v113c0,8.8,6.1,16,13.7,16h296.9c7.6,0,13.7-7.2,13.7-16
	V61C324.9,52.1,318.7,45,311.1,45z M312,164.7c0,5.1-3.6,9.3-7.9,9.3H21.3c-4.4,0-7.9-4.1-7.9-9.3V70.2c0-5.1,3.6-9.3,7.9-9.3h282.7
	c4.4,0,7.9,4.1,7.9,9.3V164.7z"/>
<g id="XMLID_3_">
	<path id="XMLID_53_" class="st0" d="M81.9,126.9c-0.1-0.2-0.2-0.4-0.3-0.6c0.1,0,0.3,0.1,0.4,0.1C82,126.6,82,126.7,81.9,126.9z"/>
	<path id="XMLID_31_" class="st0" d="M114.3,131.8c-2.4-1.1-4.8-2.2-7.2-3.2c-8.2-3.5-16.6-6.7-25.1-9.4c1.4-4.6,2.8-9.1,4.2-13.7
		c1.4-4.5,2.4-9.6,4.3-14.1l0,0c0.6-1.5,1.4-2.9,2.3-4.2c5.4-8-6.7-16.7-12.2-8.7c-4.1,6-5.7,13.1-7.8,19.9c-1,3.3-2,6.5-3,9.8
		c-2.1-14.3-5.2-28.5-9.1-42.5c4.6-6.2,9.1-12.5,13.1-19c8.4-13.3,16.8-39-4.7-45.1c-16.6-4.7-35,7-34.2,24.9
		c0.5,10.3,4.2,20.5,7.4,30.3c0.6,1.9,1.2,3.8,1.8,5.7C37.9,70.7,31.6,78.8,25.5,87c-5,6.7,3.4,14.1,9.6,11c1-0.5,1.9-1.2,2.7-2.3
		c3.8-5.1,7.6-10.1,11.5-15.1c0.5,1.9,0.9,3.8,1.4,5.7c4.2,18.5,6.7,37.3,7.5,56.2c0.2,4.7,0.3,9.4,0.3,14.1
		c0,9.6,14.9,11.2,14.9,1.5c0-8.8-0.3-17.6-0.9-26.3c12.5,3.8,24.7,8.5,36.6,14C117.8,149.9,123,135.9,114.3,131.8z M50.5,30.6
		c-1.2-6.2-1-11.3,5.5-13.9c4.3-1.7,11.7-2.4,12,3.7c0.4,7-4.1,14.1-7.8,19.7c-1.7,2.5-3.4,5-5.2,7.5C53.2,42,51.6,36.4,50.5,30.6z"
		/>
</g>
<g id="XMLID_5_">
	<path id="XMLID_32_" class="st0" d="M166.5,139.3c-2.1,13-22.6,17.9-31.3,8.8c-4.2-4.4-6.1-11.3-7.5-17.1
		c-1.7-6.9-2.4-14.1-2.3-21.2c0.2-9.7,15.2-9.7,15,0c-0.1,2.8,0,5.5,0.3,8.2c0.4,4.5,1.3,8.9,2.6,13.4c0.6,1.9,1.4,5.9,3.2,6.5
		c1.9,0.7,5.2-0.9,5.5-2.5c0.3-1.6,0.9-2.8,1.8-3.7C158,127.3,167.8,131.5,166.5,139.3z"/>
</g>
<g id="XMLID_6_">
	<path id="XMLID_78_" class="st0" d="M146.7,75.4c-1.8-2.1-4.2-3.9-7-4.5c-0.2-0.1-0.5-0.1-0.7-0.1c-2.9-1.8-7.1-2-9.5,0.8
		c-4.2,4.8-5.5,11.5-2.2,17.2c3.5,6.1,11.8,9.1,17.9,5c3.1-2.1,5.4-5.5,5.4-9.3C150.6,81,149,78,146.7,75.4z"/>
</g>
<g id="XMLID_7_">
	<path id="XMLID_50_" class="st0" d="M205.6,110.5c-0.5-0.6-1-1.2-1.4-1.8c-0.3-0.4-0.6-0.8-0.9-1.3c0,0-0.1-0.1-0.1-0.1
		c-2.6,0.8-5,2.1-7.1,3.9c-1.1,0.9-2.6,2.3-3.9,3.8c-1.2,1.5-2.2,3-2.5,4.5c1.2,7,2.1,14,2.9,21.1c0.9,8.4-13.6,10.3-14.7,2
		c-0.1-0.6-0.2-1.3-0.3-1.9c0-0.3-0.1-0.5-0.1-0.8c0,0,0,0,0-0.1c-0.6-5.6-1.4-11.3-2.4-16.8c-0.2-1-0.4-2.1-0.5-3.1v0
		c-0.9-5-1.9-10.1-3-15.1c-2-9.2,11.6-13.2,14.3-4.7c1.8-1.5,3.6-2.8,5.4-3.8c4.2-2.5,9.5-4.7,14.5-4.4c5.9,0.3,7,4.2,10.3,8
		C222.5,107.1,211.9,117.8,205.6,110.5z"/>
</g>
<g id="XMLID_9_">
	<path id="XMLID_36_" class="st0" d="M267.2,103.7c-1.7-0.8-3.3-1-4.8-0.7c1.7-3.2,1.5-7.6-2.4-10.1c-11.3-7.4-25.5-0.9-31,10.5
		c-5.9,12.3-5.1,26.7,6.6,35c10.8,7.6,25.7,10.2,35-1C277.8,128.7,279,109.4,267.2,103.7z M261,122.8c-0.2,2.3-1.1,4.6-3,6.1
		c-4.4,3.4-11.2-0.6-14.9-3.4c-6.9-5.4,0-25.6,9.2-19.6c1.6,1,3.1,1.4,4.5,1.2c-1.9,3.2-1.6,7.5,2.7,9.6
		C261,117.3,261.1,121.4,261,122.8z"/>
</g>
</svg>
